<svg width="143.456px" height="143.456px" viewBox="-5.7 0 143.456 143.456" xmlns="http://www.w3.org/2000/svg">
  <path id="chicken_cooked" data-name="chicken cooked" d="M339.7,414.011l-2.553,3.08,2.551-3.08a17.353,17.353,0,0,0-7.6-3.645,17.485,17.485,0,0,0-33.647,6.662,17.565,17.565,0,0,0,1.283,6.592l-5.666,6.839c-.212-.005-.424-.018-.636-.018a26.193,26.193,0,0,0-14.76,4.545l-39.892,21.868a45.586,45.586,0,0,0,20.762,86.156h.02A45.581,45.581,0,0,0,301.4,515.527c.476-.921.73-1.543.766-1.634l.055-.131,16.61-50.778-.073-.064a26.032,26.032,0,0,0,.77-6.311,26.386,26.386,0,0,0-.593-5.525l5.474-6.607A17.491,17.491,0,0,0,339.7,414.011Zm-29.27,48.831-.943,2.568.106.092-14.879,45.482c-.072.166-.234.52-.474.981l-.069.131-.06.142a37.587,37.587,0,1,1-51.2-48.506l1.234-.607.055-.115L282.881,441.8l.174-.119a18.085,18.085,0,0,1,3.177-1.764h0l.416.333a16.181,16.181,0,0,0-.018,13.556c.081.175.186.341.273.515.178.352.349.707.554,1.047.2.324.422.633.642.947.124.176.231.36.362.532.225.295.482.57.729.849.153.176.29.36.453.53A16.436,16.436,0,0,0,291,459.488c.183.153.376.284.564.426a16.41,16.41,0,0,0,9.731,3.287h.021c.11,0,.22-.01.33-.011.306-.008.611-.014.916-.038.224-.017.446-.05.67-.078.192-.023.385-.037.576-.068.242-.037.482-.092.723-.143.171-.033.344-.06.514-.1.2-.047.391-.11.587-.164s.423-.11.631-.176c.1-.033.2-.074.3-.109a16.086,16.086,0,0,0,4.247-2.2l.334.268A18.049,18.049,0,0,1,310.431,462.842Zm25.419-29.3A9.511,9.511,0,0,1,324.7,436.16l-2.769-1.227-5.7,6.883h0l-4.746,5.726-3.489,4.212-.438.523c-.112.135-.235.254-.353.379a8.066,8.066,0,0,1-3.826,2.264,8.3,8.3,0,0,1-1.33.24c-.25.022-.5.039-.753.039s-.474-.009-.711-.031a8.057,8.057,0,0,1-3.761-1.312A8.146,8.146,0,0,1,295,441.878l.3-.363.134-.164.327-.393L309.4,424.5l-1.516-2.445a9.533,9.533,0,0,1-1.428-5.025,9.483,9.483,0,0,1,18.727-2.116l.685,2.979,3.055.12a9.484,9.484,0,0,1,6.928,15.531Zm-45.766,32.079a17.4,17.4,0,0,0-20.347-4.584L243.7,469.922a29.158,29.158,0,0,0,8.742,56.98h.016a29.158,29.158,0,0,0,24.319-13.109c.4-.525.627-.893.678-.971l.072-.117L290.1,488.949l1.844-3.384a17.409,17.409,0,0,0-1.854-19.946Zm-3.841,11.272a9.463,9.463,0,0,1-1.267,4.732l-.028.051-1.9,3.49-12.429,23.5c-.057.084-.153.219-.279.385l-.1.123-.08.123a21.161,21.161,0,1,1-23.709-31.852l1.481-.435.062-.1,24.7-8.431.2-.09a9.411,9.411,0,0,1,11.1,2.422l3.043-2.6-3.043,2.6A9.3,9.3,0,0,1,286.243,476.893Z" transform="translate(-213.981 -399.554)"/>
</svg>
