<?xml version="1.0" ?><svg width="32px" height="32px" viewBox="0 0 32 32" xmlns="http://www.w3.org/2000/svg"><defs><style>.cls-1{fill:#ff005c; stroke:#00000;}</style></defs><title/><g data-name="Heart Rate" id="Heart_Rate"><path d="M15.89,10.55l-1.82.08-1,2.37-.8,2H11v2h2l.93-.63.39-1,.78-2L15.88,15l.23-.45L17,14h.62ZM28,7.39A7.08,7.08,0,0,0,22.73,4a7.35,7.35,0,0,0-2.58.28,11.62,11.62,0,0,0-3.82,2.05L16,6.62l-.12-.1A12.83,12.83,0,0,0,14,5.23,8.29,8.29,0,0,0,9.27,4a6.16,6.16,0,0,0-1.42.28A6.86,6.86,0,0,0,5.11,6.07,10.49,10.49,0,0,0,4,7.39c-3.83,5.47,3.9,13.76,8.47,17.92.56.51,1.07,1,1.51,1.33.65.56,1.14.95,1.38,1.14h1.24C18.31,26.45,33,14.53,28,7.39ZM26.14,14H21l-.89.55L19.38,16l-.38.76L17.62,14l-1.73-3.45-1.82.08-1,2.37-.8,2H11v2h2l.93-.63.39-1,.78-2L15.88,15,17,17.24l1.11,2.21h1.78L21.62,16H25a47.83,47.83,0,0,1-9,9.71l-.48-.41c-.47-.39-1-.84-1.52-1.33a46.5,46.5,0,0,1-6.35-7c-.23-.32-.45-.63-.65-.95-1.81-2.81-2.7-5.57-1.34-7.51a6.34,6.34,0,0,1,2.26-2.1A4,4,0,0,1,9.43,6,2.3,2.3,0,0,1,9.8,6a5.34,5.34,0,0,1,1.86.35l.46.17A10.34,10.34,0,0,1,14,7.6a10.69,10.69,0,0,1,1.29,1.06h1.43a10.9,10.9,0,0,1,3.36-2.22A5.51,5.51,0,0,1,22.56,6a1.77,1.77,0,0,1,.32,0,5.32,5.32,0,0,1,3.46,2.48C27.37,10,27.11,11.93,26.14,14ZM15.89,10.55l-1.82.08-1,2.37-.8,2H11v2h2l.93-.63.39-1,.78-2L15.88,15l.23-.45L17,14h.62Z"/><path fill="current" class="cls-1" d="M25,16a47.83,47.83,0,0,1-9,9.71l-.48-.41A40.7,40.7,0,0,0,23.39,16Z"/><path fill="current" class="cls-1" d="M26.14,14H24.33c.91-2.35,1-4.66-.35-6.61a10.66,10.66,0,0,0-1.1-1.33,5.32,5.32,0,0,1,3.46,2.48C27.37,10,27.11,11.93,26.14,14Z"/></g></svg>