<?xml version="1.0" encoding="utf-8"?>

<svg version="1.1" id="Icons" xmlns="http://www.w3.org/2000/svg" xmlns:xlink="http://www.w3.org/1999/xlink" x="0px" y="0px"
	 viewBox="0 0 32 32" style="enable-background:new 0 0 32 32;" xml:space="preserve">
<style type="text/css">
	.st0{fill:none;stroke:#000000;stroke-width:2;stroke-linecap:round;stroke-linejoin:round;stroke-miterlimit:10;}
</style>
<path class="st0" d="M24.4,25.7C22.4,26.5,20,27,17.5,27c-2,0-3.9-0.3-5.6-0.8"/>
<path class="st0" d="M21.9,23.4c0.6,1,1.5,1.9,2.6,2.4L25,26l1,2h3v-3c1.3-2.6,2-5.5,2-8.5v0c0-4.2-3.4-7.5-7.5-7.5h-8.2l0,0
	c-2.1-1.9-4.8-3-7.7-3H7l2.4,4c-1.3,0.8-2.4,2-2.9,3.6L6,15c-0.6,1.7-2.3,2.6-4,2v4l6,2v5h3l1-3"/>
<path class="st0" d="M30.5,18.2c-1.1,1.1-2.8,1.1-3.9,0c-0.9-0.9-0.9-2.3,0-3.2"/>
<g>
	<path d="M10,18c-0.1,0-0.1,0-0.2,0c-0.1,0-0.1,0-0.2-0.1c-0.1,0-0.1-0.1-0.2-0.1c-0.1,0-0.1-0.1-0.1-0.1c0-0.1-0.1-0.1-0.1-0.1
		c0-0.1-0.1-0.1-0.1-0.2c0-0.1,0-0.1-0.1-0.2c0-0.1,0-0.1,0-0.2c0-0.3,0.1-0.5,0.3-0.7c0,0,0.1-0.1,0.1-0.1c0.1,0,0.1-0.1,0.2-0.1
		c0.1,0,0.1,0,0.2-0.1c0.2,0,0.4,0,0.6,0.1c0.1,0.1,0.2,0.1,0.3,0.2c0.1,0.1,0.2,0.2,0.2,0.3c0,0.1,0.1,0.3,0.1,0.4
		c0,0.1,0,0.1,0,0.2c0,0.1,0,0.1-0.1,0.2c0,0.1-0.1,0.1-0.1,0.2c0,0-0.1,0.1-0.1,0.1C10.5,17.9,10.3,18,10,18z"/>
</g>
</svg>
